<svg id="logo_primary" xmlns="http://www.w3.org/2000/svg" width="228.713" height="107" viewBox="0 0 228.713 107">
  <path id="Path_1" data-name="Path 1" d="M657.75,76.584V34H574V51h8.75V42.75H649V79.47L656.8,90l-74.053,36.83V119.25H574V141l96.212-47.614Z" transform="translate(-441.499 -34)" fill="#49c6b9"/>
  <g id="Group_1" data-name="Group 1" transform="translate(0 25.51)">
    <path id="Path_2" data-name="Path 2" d="M44,178.58l4.808-6.629a20.873,20.873,0,0,0,15.37,6.774c6.993,0,9.688-3.424,9.688-6.7,0-10.2-28.263-3.861-28.263-21.707,0-8.086,6.993-14.277,17.7-14.277,7.5,0,13.694,2.477,18.138,6.847l-4.808,6.337A19.8,19.8,0,0,0,62.5,143.617c-4.953,0-8.158,2.477-8.158,6.046,0,9.105,28.263,3.5,28.263,21.561,0,8.085-5.755,15.078-18.793,15.078C54.853,186.3,48.371,183.1,44,178.58Z" transform="translate(-44 -136.041)" fill="#191e72"/>
    <path id="Path_3" data-name="Path 3" d="M263.75,187.5v-21H238.5v21H230V139h8.5v19.75h25.25V139h8.5v48.5Z" transform="translate(-183.5 -138.26)" fill="#191e72"/>
    <path id="Path_4" data-name="Path 4" d="M474.789,187.5,449.75,153.066V187.5H441V139h8.47l24.78,33.594V139H483v48.5Z" transform="translate(-341.75 -138.26)" fill="#191e72"/>
  </g>
</svg>
